<svg width="245" height="80" viewBox="0 0 245 80" fill="none" xmlns="http://www.w3.org/2000/svg">
<path d="M79.3066 62.7076C79.3066 61.9472 79.3066 61.567 79.232 61.2523C78.9919 60.2554 78.2133 59.4749 77.2164 59.2366C76.9017 59.1621 76.5215 59.162 75.7611 59.162H73.2979C72.5375 59.162 72.1573 59.1621 71.8426 59.0875C70.8457 58.8473 70.0652 58.0687 69.8269 57.0718C69.7523 56.7571 69.7523 56.3769 69.7523 55.6165V37.2484C69.7523 36.4879 69.7523 36.1059 69.8288 35.793C70.0689 34.7943 70.8475 34.0157 71.8462 33.7774C72.1609 33.7028 72.5411 33.7028 73.3015 33.7028H75.7629C76.5233 33.7028 76.9053 33.7028 77.2182 33.6282C78.2169 33.3899 78.9955 32.6095 79.2357 31.6126C79.3121 31.2979 79.3121 30.9177 79.3121 30.1572V3.79933C79.3121 3.03892 79.3121 2.65689 79.2375 2.344C78.9974 1.34709 78.2188 0.566669 77.2218 0.328358C76.9071 0.253772 76.5269 0.253772 75.7665 0.253772H60.2818C59.7997 0.253772 59.5577 0.253772 59.3358 0.290156C58.639 0.406582 58.0133 0.786788 57.593 1.35437C57.4584 1.53447 57.3493 1.74913 57.1273 2.17845L42.2938 31.0232L27.6386 2.193C27.4185 1.76004 27.3093 1.54356 27.1747 1.36165C26.7527 0.790427 26.1269 0.406582 25.4265 0.288336C25.2027 0.251953 24.9608 0.251953 24.4751 0.251953H3.54738C2.78696 0.251953 2.40494 0.251953 2.09204 0.326539C1.09332 0.566669 0.314716 1.34527 0.0745859 2.344C0 2.65871 0 3.03892 0 3.79933V15.7604C0 16.5208 0 16.9028 0.0745859 17.2157C0.314716 18.2126 1.09332 18.993 2.09022 19.2313C2.40494 19.3059 2.78515 19.3059 3.54556 19.3059H5.92139C6.6818 19.3059 7.06383 19.3059 7.37672 19.3805C8.37363 19.6206 9.15405 20.3992 9.39236 21.3961C9.46695 21.7109 9.46695 22.0911 9.46695 22.8515V40.2373C9.46695 40.9977 9.46695 41.3779 9.39236 41.6926C9.15223 42.6895 8.37363 43.4699 7.37672 43.7082C7.06201 43.7828 6.6818 43.7828 5.92139 43.7828H3.54556C2.78515 43.7828 2.40312 43.7828 2.09022 43.8574C1.09332 44.0975 0.312897 44.8761 0.0745859 45.873C0 46.1877 0 46.568 0 47.3284V75.8802C0 76.6406 0 77.0226 0.0745859 77.3355C0.314716 78.3324 1.09332 79.1129 2.09022 79.3512C2.40494 79.4258 2.78515 79.4258 3.54556 79.4258H24.9426C25.703 79.4258 26.085 79.4258 26.3979 79.3512C27.3948 79.111 28.1753 78.3324 28.4136 77.3355C28.4882 77.0208 28.4882 76.6406 28.4882 75.8802V62.7003C28.4882 61.9399 28.4882 61.5597 28.4136 61.245C28.1734 60.2481 27.3948 59.4677 26.3979 59.2294C26.0832 59.1548 25.703 59.1548 24.9426 59.1548H22.5922C21.8318 59.1548 21.4516 59.1548 21.1369 59.0802C20.14 58.8401 19.3596 58.0615 19.1213 57.0645C19.0467 56.7498 19.0467 56.3696 19.0467 55.6092V28.6546L34.4914 59.2257C34.8989 60.0316 35.1027 60.4355 35.3173 60.6465C36.0141 61.3305 37.1274 61.3414 37.8369 60.6701C38.057 60.4646 38.268 60.0644 38.6901 59.2657L55.8284 26.9155V55.6129C55.8284 56.3733 55.8284 56.7535 55.7538 57.0682C55.5137 58.0651 54.7351 58.8455 53.7382 59.0838C53.4235 59.1584 53.0433 59.1584 52.2829 59.1584H47.704C46.9436 59.1584 46.5616 59.1584 46.2487 59.233C45.2518 59.4731 44.4714 60.2517 44.2331 61.2486C44.1585 61.5634 44.1585 61.9436 44.1585 62.704V76.0075C44.1585 76.768 44.1585 77.1482 44.2331 77.4629C44.4732 78.4598 45.2518 79.2402 46.2487 79.4785C46.5634 79.5531 46.9436 79.5531 47.704 79.5531H75.7592C76.5196 79.5531 76.8999 79.5531 77.2146 79.4785C78.2115 79.2384 78.9919 78.4598 79.2302 77.4629C79.3048 77.1482 79.3048 76.768 79.3048 76.0075V62.704L79.3066 62.7076Z" fill="#043F2E"/>
<path d="M132.939 29.6716C131.5 25.2419 128.025 21.7673 123.596 20.3283C121.404 19.6152 118.695 19.6152 113.277 19.6152H105.18C99.7629 19.6152 97.0541 19.6152 94.862 20.3283C90.4324 21.7673 86.9577 25.2419 85.5188 29.6716C84.8057 31.8637 84.8057 34.5724 84.8057 39.9899V59.2403C84.8057 64.6578 84.8057 67.3666 85.5188 69.5587C86.9577 73.9883 90.4324 77.4629 94.862 78.9019C97.0541 79.6132 99.7629 79.6132 105.18 79.6132H113.277C118.695 79.6132 121.404 79.6132 123.596 78.9019C128.025 77.4629 131.5 73.9883 132.939 69.5587C133.65 67.3666 133.65 64.6578 133.65 59.2403V39.9899C133.65 34.5724 133.65 31.8637 132.939 29.6716ZM122.87 50.5575C122.87 52.8605 122.87 54.0121 122.568 54.9435C121.957 56.8263 120.48 58.3035 118.597 58.9147C117.665 59.2167 116.514 59.2167 114.211 59.2167H104.242C101.939 59.2167 100.787 59.2167 99.8556 58.9147C97.9728 58.3035 96.4956 56.8263 95.8844 54.9435C95.5824 54.0121 95.5824 52.8605 95.5824 50.5575V48.7747C95.5824 46.4716 95.5824 45.3219 95.8844 44.3887C96.4956 42.5058 97.9728 41.0287 99.8556 40.4174C100.787 40.1154 101.939 40.1154 104.242 40.1154H114.211C116.514 40.1154 117.663 40.1154 118.597 40.4174C120.48 41.0287 121.957 42.5058 122.568 44.3887C122.87 45.3201 122.87 46.4716 122.87 48.7747V50.5575Z" fill="#043F2E"/>
<path d="M189.268 1.76004C189.051 1.09605 188.531 0.573946 187.867 0.359284C187.538 0.251953 187.132 0.251953 186.319 0.251953H177.789C176.976 0.251953 176.57 0.251953 176.241 0.359284C175.577 0.575765 175.055 1.09605 174.838 1.76004C174.731 2.08931 174.731 2.49499 174.731 3.30815V15.7385C174.731 16.7536 174.731 17.263 174.598 17.6741C174.329 18.5055 173.678 19.1567 172.846 19.426C172.435 19.5588 171.928 19.5588 170.911 19.5588H160.902C155.484 19.5588 152.775 19.5588 150.583 20.2701C146.154 21.709 142.679 25.1836 141.24 29.6133C140.527 31.8054 140.527 34.5142 140.527 39.9316V59.1821C140.527 64.5995 140.527 67.3083 141.24 69.5004C142.679 73.9319 146.154 77.4047 150.583 78.8436C152.775 79.5567 155.484 79.5567 160.902 79.5567H168.999C174.416 79.5567 177.125 79.5567 179.317 78.8436C183.747 77.4047 187.221 73.9301 188.66 69.5004C189.373 67.3083 189.373 64.5995 189.373 59.1821V3.30815C189.373 2.49499 189.373 2.08931 189.266 1.76004H189.268ZM177.223 50.501C177.223 52.8041 177.223 53.9538 176.921 54.887C176.31 56.7698 174.833 58.247 172.95 58.8583C172.018 59.1602 170.867 59.1602 168.564 59.1602H159.966C157.663 59.1602 156.514 59.1602 155.58 58.8583C153.698 58.247 152.22 56.7698 151.609 54.887C151.307 53.9556 151.307 52.8041 151.307 50.501V48.7182C151.307 46.4152 151.307 45.2654 151.609 44.3322C152.22 42.4494 153.698 40.9722 155.58 40.361C156.512 40.059 157.663 40.059 159.966 40.059H168.564C170.867 40.059 172.018 40.059 172.95 40.361C174.833 40.9722 176.31 42.4494 176.921 44.3322C177.223 45.2636 177.223 46.4152 177.223 48.7182V50.501Z" fill="#043F2E"/>
<path d="M216.318 65.7409C214.015 65.7409 212.864 65.7409 211.932 65.4389C210.05 64.8277 208.572 63.3505 207.961 61.4677C207.768 60.8746 207.699 60.1888 207.674 59.1755H242.453C243.859 59.1755 244.999 58.0349 244.999 56.6287V40.0397C244.999 34.6222 244.999 31.9135 244.288 29.7214C242.849 25.2917 239.375 21.8171 234.945 20.3782C232.753 19.665 230.044 19.665 224.627 19.665H216.529C211.112 19.665 208.403 19.665 206.211 20.3782C201.78 21.8171 198.307 25.2917 196.868 29.7214C196.155 31.9135 196.155 34.6222 196.155 40.0397V59.2901C196.155 64.7076 196.155 67.4164 196.868 69.6085C198.307 74.0381 201.781 77.5127 206.211 78.9517C208.403 79.663 211.112 79.663 216.529 79.663H231.076C237.881 79.663 243.546 74.7804 244.761 68.3278C245.014 66.9834 243.984 65.7373 242.615 65.7373H216.32L216.318 65.7409ZM207.961 44.3275C208.572 42.4447 210.05 40.9675 211.932 40.3563C212.864 40.0543 214.015 40.0543 216.318 40.0543H224.832C227.135 40.0543 228.285 40.0543 229.218 40.3563C231.101 40.9675 232.578 42.4447 233.189 44.3275C233.491 45.2589 233.491 46.4104 233.491 48.7135V49.7177H207.659V48.7135C207.659 46.4104 207.659 45.2589 207.961 44.3275Z" fill="#043F2E"/>
</svg>
